<svg id="visual" viewBox="0 0 1920 1080" width="1920" height="1080" xmlns="http://www.w3.org/2000/svg" xmlns:xlink="http://www.w3.org/1999/xlink" version="1.1"><rect x="0" y="0" width="1920" height="1080" fill="#001220"></rect><defs><linearGradient id="grad1_0" x1="43.8%" y1="0%" x2="100%" y2="100%"><stop offset="14.444444444444446%" stop-color="#001220" stop-opacity="1"></stop><stop offset="85.55555555555554%" stop-color="#001220" stop-opacity="1"></stop></linearGradient></defs><defs><linearGradient id="grad2_0" x1="0%" y1="0%" x2="56.3%" y2="100%"><stop offset="14.444444444444446%" stop-color="#001220" stop-opacity="1"></stop><stop offset="85.55555555555554%" stop-color="#001220" stop-opacity="1"></stop></linearGradient></defs><g transform="translate(1920, 0)"><path d="M0 648C-86.6 645.3 -173.2 642.7 -248 598.7C-322.8 554.7 -385.8 469.3 -381.8 381.8C-377.8 294.4 -306.8 204.8 -340 140.8C-373.2 76.8 -510.6 38.4 -648 0L0 0Z" fill="#FBAE3C"></path></g><g transform="translate(0, 1080)"><path d="M0 -648C58.1 -574.3 116.2 -500.5 198.6 -479.5C281 -458.5 387.7 -490.1 458.2 -458.2C528.7 -426.3 562.9 -330.7 588.5 -243.8C614.1 -156.8 631.1 -78.4 648 0L0 0Z" fill="#FBAE3C"></path></g></svg>